<?xml version="1.0" standalone="no"?>
<!DOCTYPE svg PUBLIC "-//W3C//DTD SVG 20010904//EN"
 "http://www.w3.org/TR/2001/REC-SVG-20010904/DTD/svg10.dtd">
<svg version="1.0" xmlns="http://www.w3.org/2000/svg"
 width="443.000000pt" height="443.000000pt" viewBox="0 0 443.000000 443.000000"
 preserveAspectRatio="xMidYMid meet">
<metadata>
Created by potrace 1.14, written by Peter Selinger 2001-2017
</metadata>
<g transform="translate(0.000000,443.000000) scale(0.100000,-0.100000)"
fill="#000000" stroke="none">
<path d="M2000 4419 c-975 -107 -1754 -805 -1950 -1749 -48 -230 -59 -544 -26
-760 32 -210 108 -478 171 -599 16 -32 19 -33 63 -29 l47 4 29 -59 c16 -32 35
-64 42 -71 9 -10 1 -12 -42 -8 -57 5 -60 2 -44 -29 10 -17 7 -19 -20 -19 -28
0 -29 -2 -18 -21 10 -15 21 -19 45 -17 18 2 33 1 33 -2 0 -4 18 -35 40 -68
l40 -62 52 0 c51 -1 54 -3 83 -43 42 -58 42 -57 -10 -57 l-47 0 31 -39 c88
-110 278 -286 416 -382 287 -202 605 -330 960 -386 155 -24 489 -24 640 0 498
82 909 290 1251 633 107 107 245 279 292 363 l23 41 -25 0 c-28 0 -31 6 -16
30 6 9 21 14 39 12 25 -3 33 2 42 22 11 23 18 26 64 26 l51 0 31 62 32 63 -48
3 -48 3 43 107 c230 576 214 1197 -47 1770 l-29 62 -174 0 -175 0 31 -57 c112
-208 162 -333 212 -523 88 -339 56 -826 -74 -1105 -15 -33 -35 -80 -45 -105
-9 -25 -23 -52 -30 -60 -13 -16 -45 -75 -45 -85 0 -3 20 -5 45 -5 25 0 45 -2
45 -5 0 -9 -35 -61 -62 -93 -22 -27 -34 -32 -70 -32 -48 0 -61 -7 -71 -32 -4
-12 -17 -18 -35 -18 -48 0 -71 -36 -27 -42 25 -3 24 -5 -27 -59 -67 -71 -88
-97 -88 -109 0 -6 -4 -10 -10 -10 -5 0 -10 -6 -10 -13 0 -7 -8 -17 -19 -24
-11 -7 -21 -29 -25 -55 -5 -28 -10 -38 -15 -29 -5 7 -6 -10 -3 -38 4 -42 2
-51 -12 -51 -12 0 -16 -10 -16 -40 0 -22 5 -40 10 -40 6 0 10 -12 10 -26 0
-14 -4 -23 -8 -20 -15 9 -6 -35 9 -45 10 -7 6 -8 -13 -3 -18 4 -28 2 -28 -6 0
-6 5 -8 10 -5 6 3 10 3 10 -2 0 -14 -80 -52 -98 -47 -14 5 -14 4 -3 -4 15 -11
-3 -22 -144 -90 -182 -88 -431 -167 -620 -198 -324 -51 -750 -30 -1028 51
-111 32 -155 54 -136 66 11 7 11 9 -3 9 -22 0 -22 -2 2 48 11 22 20 47 20 54
1 7 9 31 20 53 32 65 27 79 -37 118 -32 19 -107 60 -167 91 -100 53 -280 168
-292 188 -3 4 14 8 37 8 l43 0 -55 50 c-49 44 -59 49 -102 50 -46 0 -52 4
-115 65 -53 51 -74 65 -98 65 -29 0 -54 15 -54 32 0 4 12 8 27 8 l26 0 -23 25
-23 25 51 0 52 0 -43 59 c-44 61 -62 71 -133 71 -28 0 -34 4 -34 21 0 13 -5
19 -13 16 -20 -7 -55 27 -60 59 -4 29 -4 29 -6 -3 -1 -32 -3 -33 -41 -33 -34
0 -40 -3 -40 -21 0 -19 -4 -21 -36 -16 -30 5 -34 4 -24 -8 8 -10 9 -15 2 -15
-6 0 -17 7 -24 16 -44 54 -78 86 -78 75 0 -6 -4 -10 -9 -7 -5 4 -11 3 -14 -1
-2 -5 -2 -2 0 5 1 8 3 21 3 30 0 15 2 15 10 2 8 -11 9 -7 4 15 -9 40 -14 44
-21 17 -5 -22 -14 -27 -26 -16 -3 4 0 13 8 21 18 17 20 37 3 27 -8 -5 -10 24
-5 116 3 68 11 126 16 129 5 4 10 20 9 36 0 17 5 43 11 58 6 16 11 40 11 53 0
14 4 22 10 19 6 -4 10 9 10 32 0 21 8 50 17 63 14 20 18 54 20 190 5 222 32
423 69 507 8 17 14 38 14 48 0 9 7 29 14 44 8 15 16 39 18 53 2 14 8 32 14 39
6 8 19 42 29 77 10 34 24 67 32 73 7 6 13 20 13 29 0 10 5 20 11 22 6 2 19 28
30 58 10 29 24 57 30 61 6 4 8 16 4 28 -5 17 -2 21 17 21 14 0 18 3 11 8 -12
7 -3 35 11 33 20 -3 26 1 26 14 0 17 -45 21 -55 5 -3 -6 -26 -15 -51 -21 -24
-6 -44 -15 -44 -20 0 -5 -29 -9 -65 -9 l-65 0 0 45 c0 30 -4 43 -12 41 -7 -1
-10 -1 -5 1 4 3 7 8 7 13 0 13 76 126 149 220 110 143 220 250 406 395 259
202 682 364 1057 404 105 12 406 13 503 2 57 -6 58 -7 25 -14 -19 -4 -51 -3
-70 3 -36 10 -70 5 -70 -11 0 -5 5 -9 10 -9 15 0 12 -26 -5 -40 -11 -9 -15
-33 -15 -86 0 -70 1 -74 24 -80 14 -3 30 -3 37 2 7 4 9 3 5 -4 -3 -6 -47 -14
-98 -18 -80 -6 -89 -8 -73 -20 10 -8 35 -15 54 -15 22 -1 28 -3 16 -6 -11 -3
-24 -9 -29 -14 -6 -5 -54 -9 -109 -9 -110 0 -274 -16 -325 -32 -23 -7 -30 -13
-23 -21 5 -7 12 -95 16 -197 4 -102 13 -216 20 -254 14 -73 30 -101 41 -73 3
9 14 17 24 17 11 0 21 4 25 9 3 5 34 19 70 31 36 12 65 26 65 31 0 5 18 9 39
9 22 0 41 5 43 10 2 8 84 27 232 54 16 3 34 10 39 15 6 6 36 8 72 4 77 -7 74
-12 82 187 3 81 10 151 16 159 9 10 6 18 -12 32 -22 18 -22 19 -3 19 12 0 24
5 27 10 13 20 95 7 155 -25 14 -7 53 -21 88 -29 63 -17 86 -27 217 -93 66 -33
95 -49 190 -103 22 -12 60 -39 85 -59 25 -20 63 -50 85 -66 55 -41 226 -214
276 -280 l41 -55 184 0 c113 0 184 4 184 10 0 5 -30 53 -66 107 -306 453 -755
772 -1279 908 -71 19 -177 41 -235 50 -128 19 -424 27 -540 14z m577 -85 c-3
-3 -12 -4 -19 -1 -8 3 -5 6 6 6 11 1 17 -2 13 -5z m96 -21 c-7 -2 -19 -2 -25
0 -7 3 -2 5 12 5 14 0 19 -2 13 -5z m-326 -279 c-3 -3 -12 -4 -19 -1 -8 3 -5
6 6 6 11 1 17 -2 13 -5z m-2029 -819 c0 -17 -1 -17 -5 -2 -5 21 -23 23 -23 2
0 -8 -4 -15 -10 -15 -5 0 -2 15 8 34 13 27 18 31 24 17 4 -9 6 -25 6 -36z
m-101 -147 c-3 -8 -6 -5 -6 6 -1 11 2 17 5 13 3 -3 4 -12 1 -19z m278 -1747
c3 -6 -3 -9 -14 -8 -11 0 -17 5 -15 9 7 11 22 10 29 -1z m-235 -15 c0 -3 -4
-8 -10 -11 -5 -3 -10 -1 -10 4 0 6 5 11 10 11 6 0 10 -2 10 -4z m120 -26 c0
-5 -2 -10 -4 -10 -3 0 -8 5 -11 10 -3 6 -1 10 4 10 6 0 11 -4 11 -10z m35 -18
c-3 -3 -11 0 -18 7 -9 10 -8 11 6 5 10 -3 15 -9 12 -12z m228 1 c-7 -2 -19 -2
-25 0 -7 3 -2 5 12 5 14 0 19 -2 13 -5z m-260 -23 c3 -11 1 -18 -4 -14 -5 3
-9 12 -9 20 0 20 7 17 13 -6z m24 -12 c-3 -8 -6 -5 -6 6 -1 11 2 17 5 13 3 -3
4 -12 1 -19z m3153 -658 c0 -5 -7 -10 -15 -10 -8 0 -15 -9 -15 -20 0 -11 5
-20 11 -20 5 0 7 -5 3 -11 -11 -18 -27 19 -20 47 6 23 36 35 36 14z m55 -10
c-3 -5 -12 -10 -18 -10 -7 0 -6 4 3 10 19 12 23 12 15 0z m-40 -20 c-3 -5 -11
-10 -16 -10 -6 0 -7 5 -4 10 3 6 11 10 16 10 6 0 7 -4 4 -10z"/>
<path d="M441 3424 c0 -11 3 -14 6 -6 3 7 2 16 -1 19 -3 4 -6 -2 -5 -13z"/>
<path d="M405 3386 c-11 -8 -14 -15 -8 -19 6 -4 16 0 23 8 17 21 8 28 -15 11z"/>
<path d="M370 3325 c0 -16 3 -24 8 -19 4 5 11 11 15 15 4 3 1 12 -8 19 -13 11
-15 9 -15 -15z"/>
<path d="M433 3253 c9 -2 25 -2 35 0 9 3 1 5 -18 5 -19 0 -27 -2 -17 -5z"/>
<path d="M2760 2951 c-12 -23 -2 -201 11 -201 5 0 9 12 10 28 0 24 1 25 9 7 5
-11 9 -15 9 -9 1 7 12 15 26 18 15 4 27 16 31 31 3 14 9 25 13 25 4 0 25 16
47 35 21 19 46 35 54 35 11 1 10 4 -4 15 -11 8 -16 15 -10 16 32 3 -54 17
-113 18 -62 1 -74 -2 -83 -18z"/>
<path d="M1231 2821 c-21 -21 -22 -29 -17 -109 3 -48 8 -289 12 -537 5 -401 8
-451 23 -463 12 -10 64 -13 207 -11 105 1 196 4 201 8 23 15 31 49 27 125 -5
94 -23 188 -38 198 -7 5 -4 8 7 8 9 0 17 4 17 9 0 5 -10 7 -22 3 -21 -5 -22
-4 -8 13 14 17 13 18 -8 13 -19 -5 -21 -4 -11 8 7 8 17 13 23 11 6 -2 24 2 40
10 20 11 31 12 39 4 6 -6 18 -11 27 -11 13 0 14 14 10 101 -5 91 -7 103 -29
120 -13 10 -35 19 -50 19 -15 0 -21 3 -15 8 8 5 12 52 13 142 0 74 3 174 7
221 9 118 8 119 -149 119 -67 0 -159 3 -203 6 -75 6 -83 5 -103 -15z m487
-554 c2 -12 -4 -15 -27 -15 -17 1 -28 5 -25 10 3 4 -1 8 -8 9 -10 0 -10 2 0 6
6 2 10 8 7 13 -3 5 7 5 22 1 16 -4 29 -15 31 -24z m-155 -52 c-3 -9 -8 -14
-10 -11 -3 3 -2 9 2 15 9 16 15 13 8 -4z m137 -47 c-14 -12 -31 -16 -49 -12
-20 4 -23 3 -11 -5 8 -6 10 -11 4 -11 -6 0 -17 6 -23 14 -10 12 -7 15 16 18
17 2 27 8 25 16 -1 8 1 11 5 9 5 -2 17 -1 28 3 29 11 32 -10 5 -32z m-136 -46
c2 -4 -4 -8 -14 -8 -10 0 -16 4 -14 8 3 4 9 8 14 8 5 0 11 -4 14 -8z m36 -62
c0 -5 -4 -10 -10 -10 -5 0 -10 5 -10 10 0 6 5 10 10 10 6 0 10 -4 10 -10z"/>
<path d="M983 2405 c-15 -11 -23 -26 -23 -46 0 -19 -5 -29 -15 -29 -8 0 -15
-9 -15 -20 0 -11 7 -20 15 -20 12 0 15 -17 15 -95 0 -88 1 -95 20 -95 19 0 20
7 20 95 0 88 1 95 20 95 13 0 20 7 20 20 0 14 -7 20 -21 20 -31 0 -22 42 11
50 14 3 25 12 25 20 0 21 -46 24 -72 5z"/>
<path d="M2140 2365 l0 -55 -25 16 c-17 11 -35 14 -59 10 -51 -10 -69 -37 -74
-111 -4 -61 -3 -66 26 -95 34 -34 74 -39 110 -14 20 14 22 14 22 0 0 -9 9 -16
20 -16 19 0 20 7 20 160 0 153 -1 160 -20 160 -18 0 -20 -7 -20 -55z m-20 -85
c42 -42 15 -140 -38 -140 -10 0 -28 7 -40 16 -17 12 -22 25 -22 61 0 76 54
109 100 63z"/>
<path d="M3510 2260 c0 -153 1 -160 20 -160 18 0 20 7 20 83 0 92 13 117 61
117 41 0 49 -17 49 -112 0 -81 2 -88 20 -88 19 0 20 7 20 95 0 88 -2 98 -25
120 -27 28 -58 31 -97 11 l-28 -15 0 55 c0 47 -2 54 -20 54 -19 0 -20 -7 -20
-160z"/>
<path d="M2423 2403 c-7 -3 -13 -18 -13 -34 0 -17 -6 -32 -15 -35 -19 -8 -19
-40 0 -48 11 -4 15 -23 14 -81 -1 -85 9 -105 52 -105 22 0 29 5 29 20 0 13 -7
20 -20 20 -18 0 -20 7 -20 75 0 68 2 75 20 75 13 0 20 7 20 20 0 13 -7 20 -20
20 -16 0 -20 7 -20 34 0 37 -7 46 -27 39z"/>
<path d="M592 2330 c-31 -13 -48 -54 -35 -83 8 -18 27 -28 72 -41 33 -9 63
-21 67 -27 20 -33 -73 -54 -105 -25 -20 18 -44 6 -35 -17 10 -27 77 -42 123
-28 30 9 42 19 50 43 17 47 -4 71 -79 92 -47 13 -60 21 -58 34 4 22 64 28 86
9 10 -8 25 -12 35 -8 18 7 18 8 0 30 -21 25 -84 37 -121 21z"/>
<path d="M2747 2332 c-47 -19 -74 -120 -46 -175 33 -63 116 -77 170 -29 19 17
29 34 25 40 -11 18 -34 14 -56 -8 -26 -26 -51 -25 -84 1 -48 38 -35 49 59 49
84 0 85 0 85 25 0 76 -78 126 -153 97z m91 -48 c36 -25 25 -34 -43 -34 -36 0
-65 4 -65 9 0 15 42 41 65 41 11 0 31 -7 43 -16z"/>
<path d="M3161 2326 c-33 -18 -50 -53 -51 -104 0 -77 40 -122 111 -122 30 0
89 46 89 68 0 21 -36 17 -53 -5 -40 -50 -107 -14 -107 57 0 69 64 106 104 61
19 -21 46 -18 46 4 0 22 -51 55 -84 55 -17 -1 -42 -7 -55 -14z"/>
<path d="M2650 866 c0 -10 -10 -14 -30 -14 -17 1 -36 -4 -42 -10 -7 -7 -31
-12 -53 -12 -32 0 -47 -6 -63 -25 -15 -18 -32 -25 -56 -25 -19 0 -42 -8 -52
-17 -14 -14 -40 -17 -185 -17 -93 -1 -169 -4 -169 -8 0 -8 36 -11 165 -14 44
0 143 -4 220 -9 180 -9 195 -5 195 65 0 50 0 50 33 51 17 1 38 1 45 0 7 -1 12
9 12 24 0 14 -4 25 -10 25 -5 0 -10 -6 -10 -14z"/>
<path d="M1902 805 c0 -16 2 -22 5 -12 2 9 2 23 0 30 -3 6 -5 -1 -5 -18z"/>
<path d="M1910 750 c0 -13 18 -22 24 -11 3 5 -1 11 -9 15 -8 3 -15 1 -15 -4z"/>
<path d="M1952 738 c7 -19 38 -22 38 -4 0 10 -9 16 -21 16 -12 0 -19 -5 -17
-12z"/>
</g>
</svg>
